<mxfile host="app.diagrams.net" modified="2022-11-22T13:33:33.598Z" agent="5.0 (Windows NT 10.0; Win64; x64) AppleWebKit/537.36 (KHTML, like Gecko) Chrome/107.0.0.0 Safari/537.36" etag="Cvb48ItcnekASjljd5rS" version="20.5.3" type="github">
  <diagram id="6y9qO94y8-QIFHaOcOvy" name="Trang-1">
    <mxGraphModel dx="1597" dy="1998" grid="1" gridSize="10" guides="1" tooltips="1" connect="1" arrows="1" fold="1" page="1" pageScale="1" pageWidth="827" pageHeight="1169" math="0" shadow="0">
      <root>
        <mxCell id="0" />
        <mxCell id="1" parent="0" />
        <mxCell id="Z2yfef2296Hlbc4bseWK-1" value="Manufacturer" style="rounded=0;whiteSpace=wrap;html=1;" vertex="1" parent="1">
          <mxGeometry x="440" y="-80" width="120" height="60" as="geometry" />
        </mxCell>
        <mxCell id="Z2yfef2296Hlbc4bseWK-4" value="&lt;u&gt;Manu_id&lt;/u&gt;" style="ellipse;whiteSpace=wrap;html=1;align=center;fillColor=#f8cecc;strokeColor=#b85450;" vertex="1" parent="1">
          <mxGeometry x="530" y="-170" width="100" height="40" as="geometry" />
        </mxCell>
        <mxCell id="Z2yfef2296Hlbc4bseWK-6" value="Manu_name" style="ellipse;whiteSpace=wrap;html=1;align=center;strokeColor=#000000;fillColor=default;" vertex="1" parent="1">
          <mxGeometry x="360" y="-170" width="100" height="40" as="geometry" />
        </mxCell>
        <mxCell id="Z2yfef2296Hlbc4bseWK-7" value="" style="endArrow=none;html=1;rounded=0;exitX=0.5;exitY=0;exitDx=0;exitDy=0;entryX=0.5;entryY=1;entryDx=0;entryDy=0;" edge="1" parent="1" source="Z2yfef2296Hlbc4bseWK-1" target="Z2yfef2296Hlbc4bseWK-6">
          <mxGeometry width="50" height="50" relative="1" as="geometry">
            <mxPoint x="380" y="-80" as="sourcePoint" />
            <mxPoint x="430" y="-130" as="targetPoint" />
          </mxGeometry>
        </mxCell>
        <mxCell id="Z2yfef2296Hlbc4bseWK-8" value="" style="endArrow=none;html=1;rounded=0;exitX=0.5;exitY=0;exitDx=0;exitDy=0;entryX=0.5;entryY=1;entryDx=0;entryDy=0;" edge="1" parent="1" source="Z2yfef2296Hlbc4bseWK-1" target="Z2yfef2296Hlbc4bseWK-4">
          <mxGeometry width="50" height="50" relative="1" as="geometry">
            <mxPoint x="510" y="-80" as="sourcePoint" />
            <mxPoint x="419.9999999999998" y="-120" as="targetPoint" />
          </mxGeometry>
        </mxCell>
        <mxCell id="Z2yfef2296Hlbc4bseWK-9" value="Products" style="rounded=0;whiteSpace=wrap;html=1;strokeColor=#000000;fillColor=default;" vertex="1" parent="1">
          <mxGeometry x="550" y="140" width="120" height="60" as="geometry" />
        </mxCell>
        <mxCell id="Z2yfef2296Hlbc4bseWK-12" value="" style="endArrow=none;html=1;rounded=0;exitX=0.5;exitY=0;exitDx=0;exitDy=0;entryX=0.5;entryY=1;entryDx=0;entryDy=0;startArrow=none;" edge="1" parent="1" source="Z2yfef2296Hlbc4bseWK-33" target="Z2yfef2296Hlbc4bseWK-1">
          <mxGeometry width="50" height="50" relative="1" as="geometry">
            <mxPoint x="480" y="100" as="sourcePoint" />
            <mxPoint x="530" y="50" as="targetPoint" />
          </mxGeometry>
        </mxCell>
        <mxCell id="Z2yfef2296Hlbc4bseWK-13" value="" style="endArrow=none;html=1;rounded=0;exitX=1;exitY=0.5;exitDx=0;exitDy=0;entryX=0.5;entryY=1;entryDx=0;entryDy=0;" edge="1" parent="1" source="Z2yfef2296Hlbc4bseWK-9" target="Z2yfef2296Hlbc4bseWK-14">
          <mxGeometry width="50" height="50" relative="1" as="geometry">
            <mxPoint x="700" y="170" as="sourcePoint" />
            <mxPoint x="750" y="120" as="targetPoint" />
          </mxGeometry>
        </mxCell>
        <mxCell id="Z2yfef2296Hlbc4bseWK-14" value="&lt;u&gt;Pr_id&lt;/u&gt;" style="ellipse;whiteSpace=wrap;html=1;align=center;strokeColor=#b85450;fillColor=#f8cecc;" vertex="1" parent="1">
          <mxGeometry x="760" y="-20" width="100" height="40" as="geometry" />
        </mxCell>
        <mxCell id="Z2yfef2296Hlbc4bseWK-15" value="&lt;u&gt;Pr_name&lt;/u&gt;" style="ellipse;whiteSpace=wrap;html=1;align=center;strokeColor=#000000;fillColor=default;" vertex="1" parent="1">
          <mxGeometry x="830" y="30" width="97" height="40" as="geometry" />
        </mxCell>
        <mxCell id="Z2yfef2296Hlbc4bseWK-16" value="" style="endArrow=none;html=1;rounded=0;exitX=1;exitY=0.5;exitDx=0;exitDy=0;entryX=0;entryY=0.5;entryDx=0;entryDy=0;" edge="1" parent="1" source="Z2yfef2296Hlbc4bseWK-9" target="Z2yfef2296Hlbc4bseWK-18">
          <mxGeometry width="50" height="50" relative="1" as="geometry">
            <mxPoint x="680" y="180" as="sourcePoint" />
            <mxPoint x="820" y="30" as="targetPoint" />
          </mxGeometry>
        </mxCell>
        <mxCell id="Z2yfef2296Hlbc4bseWK-17" value="" style="endArrow=none;html=1;rounded=0;exitX=1;exitY=0.5;exitDx=0;exitDy=0;entryX=0.5;entryY=1;entryDx=0;entryDy=0;" edge="1" parent="1" source="Z2yfef2296Hlbc4bseWK-9" target="Z2yfef2296Hlbc4bseWK-15">
          <mxGeometry width="50" height="50" relative="1" as="geometry">
            <mxPoint x="680" y="190" as="sourcePoint" />
            <mxPoint x="820" y="40" as="targetPoint" />
          </mxGeometry>
        </mxCell>
        <mxCell id="Z2yfef2296Hlbc4bseWK-18" value="Imei" style="ellipse;whiteSpace=wrap;html=1;align=center;strokeColor=#000000;fillColor=default;" vertex="1" parent="1">
          <mxGeometry x="900" y="80" width="100" height="40" as="geometry" />
        </mxCell>
        <mxCell id="Z2yfef2296Hlbc4bseWK-19" value="" style="endArrow=none;html=1;rounded=0;entryX=1;entryY=0.5;entryDx=0;entryDy=0;exitX=0;exitY=0.5;exitDx=0;exitDy=0;" edge="1" parent="1" target="Z2yfef2296Hlbc4bseWK-9" source="Z2yfef2296Hlbc4bseWK-20">
          <mxGeometry width="50" height="50" relative="1" as="geometry">
            <mxPoint x="850" y="250" as="sourcePoint" />
            <mxPoint x="750" y="250" as="targetPoint" />
          </mxGeometry>
        </mxCell>
        <mxCell id="Z2yfef2296Hlbc4bseWK-20" value="Price" style="ellipse;whiteSpace=wrap;html=1;align=center;strokeColor=#000000;fillColor=default;" vertex="1" parent="1">
          <mxGeometry x="900" y="130" width="100" height="40" as="geometry" />
        </mxCell>
        <mxCell id="Z2yfef2296Hlbc4bseWK-21" value="" style="endArrow=none;html=1;rounded=0;exitX=1;exitY=0.5;exitDx=0;exitDy=0;entryX=0;entryY=0.5;entryDx=0;entryDy=0;" edge="1" parent="1" source="Z2yfef2296Hlbc4bseWK-9" target="Z2yfef2296Hlbc4bseWK-22">
          <mxGeometry width="50" height="50" relative="1" as="geometry">
            <mxPoint x="740" y="210" as="sourcePoint" />
            <mxPoint x="910" y="200" as="targetPoint" />
          </mxGeometry>
        </mxCell>
        <mxCell id="Z2yfef2296Hlbc4bseWK-22" value="Phonesize" style="ellipse;whiteSpace=wrap;html=1;align=center;strokeColor=#000000;fillColor=default;" vertex="1" parent="1">
          <mxGeometry x="900" y="180" width="100" height="40" as="geometry" />
        </mxCell>
        <mxCell id="Z2yfef2296Hlbc4bseWK-23" value="" style="endArrow=none;html=1;rounded=0;exitX=1;exitY=0.5;exitDx=0;exitDy=0;entryX=0;entryY=0.5;entryDx=0;entryDy=0;" edge="1" parent="1" source="Z2yfef2296Hlbc4bseWK-9" target="Z2yfef2296Hlbc4bseWK-24">
          <mxGeometry width="50" height="50" relative="1" as="geometry">
            <mxPoint x="700" y="230" as="sourcePoint" />
            <mxPoint x="870" y="240" as="targetPoint" />
          </mxGeometry>
        </mxCell>
        <mxCell id="Z2yfef2296Hlbc4bseWK-24" value="Capacities" style="ellipse;whiteSpace=wrap;html=1;align=center;strokeColor=#000000;fillColor=default;" vertex="1" parent="1">
          <mxGeometry x="870" y="240" width="100" height="40" as="geometry" />
        </mxCell>
        <mxCell id="Z2yfef2296Hlbc4bseWK-25" value="" style="endArrow=none;html=1;rounded=0;exitX=1;exitY=0.5;exitDx=0;exitDy=0;entryX=0;entryY=1;entryDx=0;entryDy=0;" edge="1" parent="1" source="Z2yfef2296Hlbc4bseWK-22" target="Z2yfef2296Hlbc4bseWK-26">
          <mxGeometry width="50" height="50" relative="1" as="geometry">
            <mxPoint x="1000" y="210" as="sourcePoint" />
            <mxPoint x="1070" y="130" as="targetPoint" />
          </mxGeometry>
        </mxCell>
        <mxCell id="Z2yfef2296Hlbc4bseWK-26" value="Width" style="ellipse;whiteSpace=wrap;html=1;align=center;strokeColor=#000000;fillColor=default;" vertex="1" parent="1">
          <mxGeometry x="1080" y="90" width="100" height="40" as="geometry" />
        </mxCell>
        <mxCell id="Z2yfef2296Hlbc4bseWK-27" value="" style="endArrow=none;html=1;rounded=0;exitX=1;exitY=0.5;exitDx=0;exitDy=0;entryX=0;entryY=0.5;entryDx=0;entryDy=0;" edge="1" parent="1" source="Z2yfef2296Hlbc4bseWK-22" target="Z2yfef2296Hlbc4bseWK-31">
          <mxGeometry width="50" height="50" relative="1" as="geometry">
            <mxPoint x="1010" y="210" as="sourcePoint" />
            <mxPoint x="1110" y="170" as="targetPoint" />
          </mxGeometry>
        </mxCell>
        <mxCell id="Z2yfef2296Hlbc4bseWK-28" value="" style="endArrow=none;html=1;rounded=0;exitX=1;exitY=0.5;exitDx=0;exitDy=0;entryX=0;entryY=0.5;entryDx=0;entryDy=0;" edge="1" parent="1" source="Z2yfef2296Hlbc4bseWK-22" target="Z2yfef2296Hlbc4bseWK-32">
          <mxGeometry width="50" height="50" relative="1" as="geometry">
            <mxPoint x="1010" y="220" as="sourcePoint" />
            <mxPoint x="1130" y="240" as="targetPoint" />
          </mxGeometry>
        </mxCell>
        <mxCell id="Z2yfef2296Hlbc4bseWK-29" style="edgeStyle=orthogonalEdgeStyle;rounded=0;orthogonalLoop=1;jettySize=auto;html=1;exitX=0.5;exitY=1;exitDx=0;exitDy=0;" edge="1" parent="1" source="Z2yfef2296Hlbc4bseWK-26" target="Z2yfef2296Hlbc4bseWK-26">
          <mxGeometry relative="1" as="geometry" />
        </mxCell>
        <mxCell id="Z2yfef2296Hlbc4bseWK-31" value="Height" style="ellipse;whiteSpace=wrap;html=1;align=center;strokeColor=#000000;fillColor=default;" vertex="1" parent="1">
          <mxGeometry x="1110" y="150" width="100" height="40" as="geometry" />
        </mxCell>
        <mxCell id="Z2yfef2296Hlbc4bseWK-32" value="Weight" style="ellipse;whiteSpace=wrap;html=1;align=center;strokeColor=#000000;fillColor=default;" vertex="1" parent="1">
          <mxGeometry x="1130" y="220" width="100" height="40" as="geometry" />
        </mxCell>
        <mxCell id="Z2yfef2296Hlbc4bseWK-33" value="Has" style="rhombus;whiteSpace=wrap;html=1;strokeColor=#000000;fillColor=default;" vertex="1" parent="1">
          <mxGeometry x="520" y="20" width="70" height="60" as="geometry" />
        </mxCell>
        <mxCell id="Z2yfef2296Hlbc4bseWK-34" value="" style="endArrow=none;html=1;rounded=0;exitX=0.5;exitY=0;exitDx=0;exitDy=0;entryX=0.5;entryY=1;entryDx=0;entryDy=0;" edge="1" parent="1" source="Z2yfef2296Hlbc4bseWK-9" target="Z2yfef2296Hlbc4bseWK-33">
          <mxGeometry width="50" height="50" relative="1" as="geometry">
            <mxPoint x="610" y="140" as="sourcePoint" />
            <mxPoint x="500" y="-20" as="targetPoint" />
          </mxGeometry>
        </mxCell>
        <mxCell id="Z2yfef2296Hlbc4bseWK-38" value="(1,n)" style="text;html=1;strokeColor=none;fillColor=none;align=center;verticalAlign=middle;whiteSpace=wrap;rounded=0;" vertex="1" parent="1">
          <mxGeometry x="450" y="-20" width="60" height="30" as="geometry" />
        </mxCell>
        <mxCell id="Z2yfef2296Hlbc4bseWK-39" value="(1,1)" style="text;html=1;strokeColor=none;fillColor=none;align=center;verticalAlign=middle;whiteSpace=wrap;rounded=0;" vertex="1" parent="1">
          <mxGeometry x="600" y="109" width="60" height="30" as="geometry" />
        </mxCell>
      </root>
    </mxGraphModel>
  </diagram>
</mxfile>
